<svg viewBox="0 0 24 24" xmlns="http://www.w3.org/2000/svg"><path d="m17.515 5.106c-.205-.204-.612-.204-.817 0-.102.103-.204.256-.204.409s.05.306.204.408l5.412 5.362a.69.69 0 0 1 0 .868l-5.566 5.515a.693.693 0 0 0 0 .868c.255.204.614.204.817 0l6.485-6.383a.69.69 0 0 0 0-.868zm-15.523 7.047a.69.69 0 0 1 0-.868l5.31-5.362c.102-.102.204-.255.204-.408a.463.463 0 0 0 -.204-.409c-.205-.204-.612-.204-.817 0l-6.331 6.179a.69.69 0 0 0 0 .868l6.433 6.383c.255.204.614.204.817 0a.69.69 0 0 0 0-.868zm5.923 10.264 9.702-13.787h-4.699l4.597-7.047h-6.845l-3.673 10.468 4.493.051-3.574 10.315z"/></svg>